<?xml version="1.0" encoding="utf-8"?>
<!-- Generator: Adobe Illustrator 27.8.1, SVG Export Plug-In . SVG Version: 6.00 Build 0)  -->
<svg version="1.1" xmlns="http://www.w3.org/2000/svg" xmlns:xlink="http://www.w3.org/1999/xlink" x="0px" y="0px"
	 viewBox="0 0 320 320" style="enable-background:new 0 0 320 320;" xml:space="preserve">
<style type="text/css">
	.st0{display:none;}
	.st1{fill:#1D1D1B;stroke:#1D1D1B;stroke-miterlimit:10;}
	.st2{fill:none;stroke:#1D1D1B;stroke-miterlimit:10;}
</style>
<g id="Layer_1" class="st0">
	
		<image style="display:inline;overflow:visible;opacity:0.33;" width="1000" height="286" xlink:href="E8059AD8.jpg"  transform="matrix(1 0 0 1 36.2807 -0.2281)">
	</image>
</g>
<g id="Layer_2">
	<g>
		<path class="st1" d="M195.3,106.9c0,0-1.4-41.4-34.7-41.4c-36.1,0-36.1,41.8-36.1,41.8H85.8v147.4h148.4V106.9H195.3z M160.2,72.5
			c32.2,0.4,28.1,34,28.1,34h-56.1C132.1,106.5,128.9,72.1,160.2,72.5z M93.1,248.4l-0.7-134.2H124c4.6,46.7,8.4,0,8.4,0l55.4,0.3
			c0,0,3.5,44.1,7.4-0.1l30.9-0.3l0.3,134.2H93.1z"/>
		<path class="st2" d="M188.2,106.5h-56.1c0,0-3.2-34.4,28.1-34C192.4,72.9,188.2,106.5,188.2,106.5z"/>
		<path class="st2" d="M226.5,248.4H93.1l-0.7-134.2H124c4.6,46.7,8.4,0,8.4,0l55.4,0.3c0,0,3.5,44.1,7.4-0.1l30.9-0.3L226.5,248.4z
			"/>
		<path class="st2" d="M226.5,248.4H93.1l-0.7-134.2H124c4.6,46.7,8.4,0,8.4,0l55.4,0.3c0,0,3.5,44.1,7.4-0.1l30.9-0.3L226.5,248.4z
			"/>
		<path class="st2" d="M188.2,106.5h-56.1c0,0-3.2-34.4,28.1-34C192.4,72.9,188.2,106.5,188.2,106.5z"/>
	</g>
</g>
</svg>
